G75*
G70*
%OFA0B0*%
%FSLAX24Y24*%
%IPPOS*%
%LPD*%
%AMOC8*
5,1,8,0,0,1.08239X$1,22.5*
%
%ADD10C,0.0087*%
%ADD11C,0.0190*%
%ADD12R,0.0354X0.0276*%
%ADD13R,0.0276X0.0354*%
%ADD14R,0.0315X0.0709*%
%ADD15R,0.0315X0.0315*%
%ADD16R,0.0433X0.0472*%
%ADD17C,0.0100*%
%ADD18C,0.0357*%
D10*
X003473Y003829D02*
X003681Y003829D01*
X003473Y003829D02*
X003473Y003851D01*
X003681Y003851D01*
X003681Y003829D01*
X003681Y004026D02*
X003473Y004026D01*
X003473Y004048D01*
X003681Y004048D01*
X003681Y004026D01*
X003681Y004223D02*
X003473Y004223D01*
X003473Y004245D01*
X003681Y004245D01*
X003681Y004223D01*
X003681Y004420D02*
X003473Y004420D01*
X003473Y004442D01*
X003681Y004442D01*
X003681Y004420D01*
X003681Y004617D02*
X003473Y004617D01*
X003473Y004639D01*
X003681Y004639D01*
X003681Y004617D01*
X003681Y004814D02*
X003473Y004814D01*
X003473Y004836D01*
X003681Y004836D01*
X003681Y004814D01*
X003681Y005011D02*
X003473Y005011D01*
X003473Y005033D01*
X003681Y005033D01*
X003681Y005011D01*
X003681Y005207D02*
X003473Y005207D01*
X003473Y005229D01*
X003681Y005229D01*
X003681Y005207D01*
X003681Y005404D02*
X003473Y005404D01*
X003473Y005426D01*
X003681Y005426D01*
X003681Y005404D01*
X003681Y005601D02*
X003473Y005601D01*
X003473Y005623D01*
X003681Y005623D01*
X003681Y005601D01*
X003681Y005798D02*
X003473Y005798D01*
X003473Y005820D01*
X003681Y005820D01*
X003681Y005798D01*
X003871Y006010D02*
X003871Y006218D01*
X003893Y006218D01*
X003893Y006010D01*
X003871Y006010D01*
X003871Y006096D02*
X003893Y006096D01*
X003893Y006182D02*
X003871Y006182D01*
X004068Y006218D02*
X004068Y006010D01*
X004068Y006218D02*
X004090Y006218D01*
X004090Y006010D01*
X004068Y006010D01*
X004068Y006096D02*
X004090Y006096D01*
X004090Y006182D02*
X004068Y006182D01*
X004265Y006218D02*
X004265Y006010D01*
X004265Y006218D02*
X004287Y006218D01*
X004287Y006010D01*
X004265Y006010D01*
X004265Y006096D02*
X004287Y006096D01*
X004287Y006182D02*
X004265Y006182D01*
X004461Y006218D02*
X004461Y006010D01*
X004461Y006218D02*
X004483Y006218D01*
X004483Y006010D01*
X004461Y006010D01*
X004461Y006096D02*
X004483Y006096D01*
X004483Y006182D02*
X004461Y006182D01*
X004658Y006218D02*
X004658Y006010D01*
X004658Y006218D02*
X004680Y006218D01*
X004680Y006010D01*
X004658Y006010D01*
X004658Y006096D02*
X004680Y006096D01*
X004680Y006182D02*
X004658Y006182D01*
X004855Y006218D02*
X004855Y006010D01*
X004855Y006218D02*
X004877Y006218D01*
X004877Y006010D01*
X004855Y006010D01*
X004855Y006096D02*
X004877Y006096D01*
X004877Y006182D02*
X004855Y006182D01*
X005052Y006218D02*
X005052Y006010D01*
X005052Y006218D02*
X005074Y006218D01*
X005074Y006010D01*
X005052Y006010D01*
X005052Y006096D02*
X005074Y006096D01*
X005074Y006182D02*
X005052Y006182D01*
X005249Y006218D02*
X005249Y006010D01*
X005249Y006218D02*
X005271Y006218D01*
X005271Y006010D01*
X005249Y006010D01*
X005249Y006096D02*
X005271Y006096D01*
X005271Y006182D02*
X005249Y006182D01*
X005446Y006218D02*
X005446Y006010D01*
X005446Y006218D02*
X005468Y006218D01*
X005468Y006010D01*
X005446Y006010D01*
X005446Y006096D02*
X005468Y006096D01*
X005468Y006182D02*
X005446Y006182D01*
X005643Y006218D02*
X005643Y006010D01*
X005643Y006218D02*
X005665Y006218D01*
X005665Y006010D01*
X005643Y006010D01*
X005643Y006096D02*
X005665Y006096D01*
X005665Y006182D02*
X005643Y006182D01*
X005839Y006218D02*
X005839Y006010D01*
X005839Y006218D02*
X005861Y006218D01*
X005861Y006010D01*
X005839Y006010D01*
X005839Y006096D02*
X005861Y006096D01*
X005861Y006182D02*
X005839Y006182D01*
X006052Y005820D02*
X006260Y005820D01*
X006260Y005798D01*
X006052Y005798D01*
X006052Y005820D01*
X006052Y005623D02*
X006260Y005623D01*
X006260Y005601D01*
X006052Y005601D01*
X006052Y005623D01*
X006052Y005426D02*
X006260Y005426D01*
X006260Y005404D01*
X006052Y005404D01*
X006052Y005426D01*
X006052Y005229D02*
X006260Y005229D01*
X006260Y005207D01*
X006052Y005207D01*
X006052Y005229D01*
X006052Y005033D02*
X006260Y005033D01*
X006260Y005011D01*
X006052Y005011D01*
X006052Y005033D01*
X006052Y004836D02*
X006260Y004836D01*
X006260Y004814D01*
X006052Y004814D01*
X006052Y004836D01*
X006052Y004639D02*
X006260Y004639D01*
X006260Y004617D01*
X006052Y004617D01*
X006052Y004639D01*
X006052Y004442D02*
X006260Y004442D01*
X006260Y004420D01*
X006052Y004420D01*
X006052Y004442D01*
X006052Y004245D02*
X006260Y004245D01*
X006260Y004223D01*
X006052Y004223D01*
X006052Y004245D01*
X006052Y004048D02*
X006260Y004048D01*
X006260Y004026D01*
X006052Y004026D01*
X006052Y004048D01*
X006052Y003851D02*
X006260Y003851D01*
X006260Y003829D01*
X006052Y003829D01*
X006052Y003851D01*
X005861Y003639D02*
X005861Y003431D01*
X005839Y003431D01*
X005839Y003639D01*
X005861Y003639D01*
X005861Y003517D02*
X005839Y003517D01*
X005839Y003603D02*
X005861Y003603D01*
X005665Y003639D02*
X005665Y003431D01*
X005643Y003431D01*
X005643Y003639D01*
X005665Y003639D01*
X005665Y003517D02*
X005643Y003517D01*
X005643Y003603D02*
X005665Y003603D01*
X005468Y003639D02*
X005468Y003431D01*
X005446Y003431D01*
X005446Y003639D01*
X005468Y003639D01*
X005468Y003517D02*
X005446Y003517D01*
X005446Y003603D02*
X005468Y003603D01*
X005271Y003639D02*
X005271Y003431D01*
X005249Y003431D01*
X005249Y003639D01*
X005271Y003639D01*
X005271Y003517D02*
X005249Y003517D01*
X005249Y003603D02*
X005271Y003603D01*
X005074Y003639D02*
X005074Y003431D01*
X005052Y003431D01*
X005052Y003639D01*
X005074Y003639D01*
X005074Y003517D02*
X005052Y003517D01*
X005052Y003603D02*
X005074Y003603D01*
X004877Y003639D02*
X004877Y003431D01*
X004855Y003431D01*
X004855Y003639D01*
X004877Y003639D01*
X004877Y003517D02*
X004855Y003517D01*
X004855Y003603D02*
X004877Y003603D01*
X004680Y003639D02*
X004680Y003431D01*
X004658Y003431D01*
X004658Y003639D01*
X004680Y003639D01*
X004680Y003517D02*
X004658Y003517D01*
X004658Y003603D02*
X004680Y003603D01*
X004483Y003639D02*
X004483Y003431D01*
X004461Y003431D01*
X004461Y003639D01*
X004483Y003639D01*
X004483Y003517D02*
X004461Y003517D01*
X004461Y003603D02*
X004483Y003603D01*
X004287Y003639D02*
X004287Y003431D01*
X004265Y003431D01*
X004265Y003639D01*
X004287Y003639D01*
X004287Y003517D02*
X004265Y003517D01*
X004265Y003603D02*
X004287Y003603D01*
X004090Y003639D02*
X004090Y003431D01*
X004068Y003431D01*
X004068Y003639D01*
X004090Y003639D01*
X004090Y003517D02*
X004068Y003517D01*
X004068Y003603D02*
X004090Y003603D01*
X003893Y003639D02*
X003893Y003431D01*
X003871Y003431D01*
X003871Y003639D01*
X003893Y003639D01*
X003893Y003517D02*
X003871Y003517D01*
X003871Y003603D02*
X003893Y003603D01*
D11*
X004011Y003970D02*
X004011Y005680D01*
X005721Y005680D01*
X005721Y003970D01*
X004011Y003970D01*
X004011Y004159D02*
X005721Y004159D01*
X005721Y004348D02*
X004011Y004348D01*
X004011Y004537D02*
X005721Y004537D01*
X005721Y004726D02*
X004011Y004726D01*
X004011Y004915D02*
X005721Y004915D01*
X005721Y005104D02*
X004011Y005104D01*
X004011Y005293D02*
X005721Y005293D01*
X005721Y005482D02*
X004011Y005482D01*
X004011Y005671D02*
X005721Y005671D01*
D12*
X006051Y006545D03*
X006051Y007057D03*
X005559Y006935D03*
X005106Y006927D03*
X005106Y007439D03*
X005559Y007447D03*
X006126Y008029D03*
X006126Y008541D03*
X004602Y007797D03*
X004602Y007285D03*
X004110Y007380D03*
X004110Y006868D03*
X003157Y006959D03*
X002677Y007077D03*
X002677Y007589D03*
X002165Y007592D03*
X002165Y007081D03*
X002657Y006155D03*
X002657Y005644D03*
X003157Y006447D03*
D13*
X002630Y005073D03*
X002118Y005073D03*
X002126Y003360D03*
X002638Y003360D03*
X005547Y002722D03*
X006059Y002722D03*
X005016Y008388D03*
X004504Y008388D03*
D14*
X003709Y008411D03*
X003209Y008411D03*
X002709Y008411D03*
X002209Y008411D03*
D15*
X004409Y008876D03*
X005000Y008876D03*
X005402Y008876D03*
X005992Y008876D03*
D16*
X002760Y004549D03*
X002209Y004549D03*
X002209Y003880D03*
X002760Y003880D03*
D17*
X001827Y002702D02*
X001936Y002593D01*
X005259Y002593D01*
X005259Y002703D01*
X005528Y002703D01*
X005528Y002741D01*
X005259Y002741D01*
X005259Y002919D01*
X005268Y002952D01*
X005234Y002952D01*
X005234Y002874D01*
X005187Y002760D01*
X005100Y002673D01*
X004987Y002627D01*
X004864Y002627D01*
X004750Y002673D01*
X004664Y002760D01*
X004617Y002874D01*
X004617Y002893D01*
X004296Y002893D01*
X004214Y002811D01*
X004101Y002764D01*
X003978Y002764D01*
X003865Y002811D01*
X003778Y002898D01*
X003731Y003011D01*
X003731Y003134D01*
X003778Y003247D01*
X003787Y003256D01*
X003752Y003276D01*
X003716Y003312D01*
X003691Y003356D01*
X003678Y003406D01*
X003678Y003535D01*
X003882Y003535D01*
X003882Y003341D01*
X003882Y003535D01*
X003882Y003535D01*
X003882Y003535D01*
X003678Y003535D01*
X003678Y003656D01*
X003401Y003656D01*
X003299Y003758D01*
X003299Y003923D01*
X003315Y003939D01*
X003299Y003955D01*
X003299Y004007D01*
X003228Y003936D01*
X003228Y003936D01*
X003106Y003814D01*
X003106Y003590D01*
X003030Y003514D01*
X002906Y003514D01*
X002906Y003129D01*
X002829Y003053D01*
X002446Y003053D01*
X002393Y003106D01*
X002384Y003091D01*
X002356Y003063D01*
X002322Y003043D01*
X002284Y003033D01*
X002145Y003033D01*
X002145Y003341D01*
X002107Y003341D01*
X002107Y003033D01*
X001968Y003033D01*
X001930Y003043D01*
X001896Y003063D01*
X001868Y003091D01*
X001848Y003125D01*
X001838Y003163D01*
X001838Y003341D01*
X002107Y003341D01*
X002107Y003379D01*
X001838Y003379D01*
X001838Y003557D01*
X001848Y003595D01*
X001849Y003597D01*
X001842Y003624D01*
X001842Y003830D01*
X002159Y003830D01*
X002159Y003930D01*
X001842Y003930D01*
X001842Y004136D01*
X001852Y004174D01*
X001872Y004208D01*
X001893Y004229D01*
X001862Y004259D01*
X001862Y004802D01*
X001860Y004803D01*
X001841Y004838D01*
X001830Y004876D01*
X001830Y005054D01*
X002099Y005054D01*
X002099Y005092D01*
X002099Y005400D01*
X001961Y005400D01*
X001922Y005390D01*
X001888Y005370D01*
X001860Y005342D01*
X001841Y005308D01*
X001830Y005270D01*
X001830Y005092D01*
X002099Y005092D01*
X002137Y005092D01*
X002137Y005400D01*
X002276Y005400D01*
X002314Y005390D01*
X002348Y005370D01*
X002376Y005342D01*
X002385Y005327D01*
X002424Y005366D01*
X002422Y005366D01*
X002388Y005386D01*
X002360Y005414D01*
X002341Y005448D01*
X002330Y005486D01*
X002330Y005625D01*
X002639Y005625D01*
X002639Y005663D01*
X002330Y005663D01*
X002330Y005801D01*
X002341Y005839D01*
X002360Y005874D01*
X002388Y005901D01*
X002404Y005910D01*
X002350Y005964D01*
X002350Y006347D01*
X002390Y006387D01*
X002353Y006476D01*
X002353Y006599D01*
X002400Y006712D01*
X002487Y006799D01*
X002497Y006803D01*
X002497Y006809D01*
X002446Y006809D01*
X002433Y006822D01*
X002400Y006803D01*
X002362Y006793D01*
X002184Y006793D01*
X002184Y007062D01*
X002146Y007062D01*
X001838Y007062D01*
X001838Y006923D01*
X001848Y006885D01*
X001868Y006851D01*
X001896Y006823D01*
X001930Y006803D01*
X001968Y006793D01*
X002146Y006793D01*
X002146Y007062D01*
X002146Y007100D01*
X001838Y007100D01*
X001838Y007238D01*
X001848Y007276D01*
X001868Y007311D01*
X001896Y007338D01*
X001912Y007347D01*
X001858Y007401D01*
X001858Y007784D01*
X001934Y007860D01*
X002396Y007860D01*
X002423Y007833D01*
X002446Y007856D01*
X002497Y007856D01*
X002497Y007927D01*
X002473Y007952D01*
X002458Y007937D01*
X002424Y007917D01*
X002386Y007907D01*
X002237Y007907D01*
X002237Y008383D01*
X002180Y008383D01*
X001901Y008383D01*
X001901Y008037D01*
X001911Y007999D01*
X001931Y007965D01*
X001959Y007937D01*
X001993Y007917D01*
X002031Y007907D01*
X002180Y007907D01*
X002180Y008383D01*
X002180Y008440D01*
X001901Y008440D01*
X001901Y008785D01*
X001911Y008824D01*
X001931Y008858D01*
X001959Y008886D01*
X001993Y008905D01*
X002031Y008916D01*
X002180Y008916D01*
X002180Y008440D01*
X002237Y008440D01*
X002237Y008916D01*
X002386Y008916D01*
X002424Y008905D01*
X002458Y008886D01*
X002473Y008871D01*
X002497Y008896D01*
X002920Y008896D01*
X002959Y008857D01*
X002997Y008896D01*
X003420Y008896D01*
X003445Y008871D01*
X003459Y008886D01*
X003493Y008905D01*
X003531Y008916D01*
X003680Y008916D01*
X003680Y008440D01*
X003737Y008440D01*
X003737Y008916D01*
X003886Y008916D01*
X003924Y008905D01*
X003958Y008886D01*
X003986Y008858D01*
X004006Y008824D01*
X004016Y008785D01*
X004016Y008440D01*
X003737Y008440D01*
X003737Y008383D01*
X004016Y008383D01*
X004016Y008088D01*
X004236Y008308D01*
X004236Y008568D01*
X004232Y008568D01*
X004194Y008579D01*
X004160Y008598D01*
X004132Y008626D01*
X004112Y008661D01*
X004102Y008699D01*
X004102Y008847D01*
X004381Y008847D01*
X004381Y008905D01*
X004102Y008905D01*
X004102Y008986D01*
X002117Y008986D01*
X002061Y008980D01*
X001956Y008937D01*
X001876Y008857D01*
X001833Y008752D01*
X001827Y008696D01*
X001827Y002702D01*
X001827Y002738D02*
X004686Y002738D01*
X004632Y002837D02*
X004240Y002837D01*
X004039Y003073D02*
X004571Y003073D01*
X004866Y003368D01*
X004866Y003535D01*
X005122Y003132D02*
X004925Y002935D01*
X005122Y003132D02*
X005319Y003132D01*
X005457Y003270D01*
X005457Y003535D01*
X005654Y003535D02*
X005654Y003270D01*
X005772Y003151D01*
X005949Y003151D01*
X006256Y003455D02*
X006256Y002770D01*
X006209Y002722D01*
X006059Y002722D01*
X005566Y002741D02*
X005528Y002741D01*
X005528Y003050D01*
X005491Y003050D01*
X005499Y003057D01*
X005555Y003113D01*
X005579Y003090D01*
X005619Y003050D01*
X005566Y003050D01*
X005566Y002741D01*
X005528Y002738D02*
X005165Y002738D01*
X005218Y002837D02*
X005259Y002837D01*
X005264Y002935D02*
X005234Y002935D01*
X005259Y002640D02*
X005019Y002640D01*
X004832Y002640D02*
X001889Y002640D01*
X001827Y002837D02*
X003839Y002837D01*
X003762Y002935D02*
X001827Y002935D01*
X001827Y003034D02*
X001965Y003034D01*
X002107Y003034D02*
X002145Y003034D01*
X002145Y003132D02*
X002107Y003132D01*
X002107Y003231D02*
X002145Y003231D01*
X002145Y003329D02*
X002107Y003329D01*
X001846Y003132D02*
X001827Y003132D01*
X001827Y003231D02*
X001838Y003231D01*
X001827Y003329D02*
X001838Y003329D01*
X001827Y003428D02*
X001838Y003428D01*
X001827Y003526D02*
X001838Y003526D01*
X001827Y003625D02*
X001842Y003625D01*
X001842Y003723D02*
X001827Y003723D01*
X001827Y003822D02*
X001842Y003822D01*
X001827Y003920D02*
X002159Y003920D01*
X002209Y003880D02*
X002760Y004549D01*
X003154Y004707D02*
X003154Y004116D01*
X002917Y003880D01*
X002760Y003880D01*
X002638Y003758D01*
X002638Y003360D01*
X002642Y003463D01*
X002638Y003360D02*
X002543Y003258D01*
X002287Y003034D02*
X003731Y003034D01*
X003731Y003132D02*
X002906Y003132D01*
X002906Y003231D02*
X003771Y003231D01*
X003707Y003329D02*
X002906Y003329D01*
X002906Y003428D02*
X003678Y003428D01*
X003678Y003526D02*
X003043Y003526D01*
X003106Y003625D02*
X003678Y003625D01*
X003882Y003526D02*
X003882Y003526D01*
X003882Y003840D01*
X004866Y004825D01*
X004472Y005218D01*
X003577Y005218D01*
X003279Y005218D01*
X003279Y005202D01*
X002898Y005202D01*
X002898Y005304D01*
X002846Y005356D01*
X002854Y005356D01*
X002893Y005366D01*
X002927Y005386D01*
X002955Y005414D01*
X002974Y005448D01*
X002985Y005486D01*
X002985Y005526D01*
X003276Y005235D01*
X003279Y005235D01*
X003279Y005218D01*
X003577Y005218D01*
X003577Y005218D01*
X003577Y005022D02*
X002630Y005022D01*
X002630Y005073D01*
X002209Y004651D01*
X002209Y004549D01*
X001862Y004511D02*
X001827Y004511D01*
X001827Y004413D02*
X001862Y004413D01*
X001862Y004314D02*
X001827Y004314D01*
X001827Y004216D02*
X001880Y004216D01*
X001842Y004117D02*
X001827Y004117D01*
X001827Y004019D02*
X001842Y004019D01*
X001827Y004610D02*
X001862Y004610D01*
X001862Y004708D02*
X001827Y004708D01*
X001827Y004807D02*
X001858Y004807D01*
X001830Y004905D02*
X001827Y004905D01*
X001827Y005004D02*
X001830Y005004D01*
X001827Y005102D02*
X001830Y005102D01*
X001827Y005201D02*
X001830Y005201D01*
X001827Y005299D02*
X001838Y005299D01*
X001827Y005398D02*
X001953Y005398D01*
X001921Y005423D02*
X002071Y005573D01*
X002099Y005398D02*
X002137Y005398D01*
X002137Y005299D02*
X002099Y005299D01*
X002099Y005201D02*
X002137Y005201D01*
X002137Y005102D02*
X002099Y005102D01*
X002283Y005398D02*
X002376Y005398D01*
X002330Y005496D02*
X001827Y005496D01*
X001827Y005595D02*
X002330Y005595D01*
X002330Y005693D02*
X001827Y005693D01*
X001827Y005792D02*
X002330Y005792D01*
X002377Y005890D02*
X001827Y005890D01*
X001827Y005989D02*
X002350Y005989D01*
X002350Y006087D02*
X001827Y006087D01*
X001827Y006186D02*
X002350Y006186D01*
X002350Y006284D02*
X001827Y006284D01*
X001827Y006383D02*
X002386Y006383D01*
X002353Y006481D02*
X001827Y006481D01*
X001827Y006580D02*
X002353Y006580D01*
X002386Y006678D02*
X001827Y006678D01*
X001827Y006777D02*
X002465Y006777D01*
X002677Y006553D02*
X002661Y006537D01*
X002657Y006533D01*
X002657Y006155D01*
X002886Y006155D01*
X003016Y006026D01*
X003016Y005750D01*
X003350Y005415D01*
X003577Y005415D01*
X003577Y005612D02*
X003409Y005612D01*
X003291Y005730D01*
X003291Y006313D01*
X003157Y006447D01*
X002677Y006553D02*
X002677Y007077D01*
X002657Y007096D01*
X003083Y006959D02*
X002661Y006537D01*
X003083Y006959D02*
X003157Y006959D01*
X003441Y006959D01*
X003961Y006439D01*
X004512Y006439D01*
X004669Y006301D01*
X004669Y006114D01*
X004866Y006114D02*
X004866Y006380D01*
X004571Y006655D01*
X004217Y006655D01*
X004110Y006801D01*
X004110Y006868D01*
X003803Y006875D02*
X003779Y006875D01*
X003803Y006851D02*
X003621Y007033D01*
X003516Y007139D01*
X003465Y007139D01*
X003465Y007150D01*
X003408Y007207D01*
X003511Y007309D01*
X003897Y007696D01*
X004134Y007696D01*
X004239Y007801D01*
X004275Y007837D01*
X004275Y007816D01*
X004583Y007816D01*
X004583Y007778D01*
X004275Y007778D01*
X004275Y007648D01*
X003879Y007648D01*
X003803Y007571D01*
X003803Y007188D01*
X003867Y007124D01*
X003803Y007060D01*
X003803Y006851D01*
X003803Y006974D02*
X003680Y006974D01*
X003582Y007072D02*
X003816Y007072D01*
X003820Y007171D02*
X003444Y007171D01*
X003471Y007269D02*
X003803Y007269D01*
X003803Y007368D02*
X003569Y007368D01*
X003668Y007466D02*
X003803Y007466D01*
X003803Y007565D02*
X003766Y007565D01*
X003865Y007663D02*
X004275Y007663D01*
X004275Y007762D02*
X004200Y007762D01*
X004059Y007876D02*
X003823Y007876D01*
X003331Y007384D01*
X003134Y007384D01*
X003213Y007837D02*
X003209Y007840D01*
X003209Y008411D01*
X003680Y008451D02*
X003737Y008451D01*
X003764Y008466D02*
X003709Y008411D01*
X003764Y008466D02*
X004079Y008466D01*
X004016Y008451D02*
X004236Y008451D01*
X004236Y008353D02*
X004016Y008353D01*
X004016Y008254D02*
X004183Y008254D01*
X004084Y008156D02*
X004016Y008156D01*
X004059Y007876D02*
X004504Y008321D01*
X004504Y008388D01*
X004236Y008550D02*
X004016Y008550D01*
X004016Y008648D02*
X004119Y008648D01*
X004102Y008747D02*
X004016Y008747D01*
X003993Y008845D02*
X004102Y008845D01*
X004102Y008944D02*
X001973Y008944D01*
X001924Y008845D02*
X001871Y008845D01*
X001901Y008747D02*
X001832Y008747D01*
X001827Y008648D02*
X001901Y008648D01*
X001901Y008550D02*
X001827Y008550D01*
X001827Y008451D02*
X001901Y008451D01*
X001901Y008353D02*
X001827Y008353D01*
X001827Y008254D02*
X001901Y008254D01*
X001901Y008156D02*
X001827Y008156D01*
X001827Y008057D02*
X001901Y008057D01*
X001937Y007959D02*
X001827Y007959D01*
X001827Y007860D02*
X002497Y007860D01*
X002237Y007959D02*
X002180Y007959D01*
X002180Y008057D02*
X002237Y008057D01*
X002237Y008156D02*
X002180Y008156D01*
X002180Y008254D02*
X002237Y008254D01*
X002237Y008353D02*
X002180Y008353D01*
X002173Y008376D02*
X002209Y008411D01*
X002237Y008451D02*
X002180Y008451D01*
X002180Y008550D02*
X002237Y008550D01*
X002237Y008648D02*
X002180Y008648D01*
X002180Y008747D02*
X002237Y008747D01*
X002237Y008845D02*
X002180Y008845D01*
X002677Y008380D02*
X002709Y008411D01*
X002677Y008380D02*
X002677Y007589D01*
X002677Y007592D01*
X002165Y007592D01*
X001858Y007565D02*
X001827Y007565D01*
X001827Y007663D02*
X001858Y007663D01*
X001858Y007762D02*
X001827Y007762D01*
X001827Y007466D02*
X001858Y007466D01*
X001827Y007368D02*
X001891Y007368D01*
X001847Y007269D02*
X001827Y007269D01*
X001827Y007171D02*
X001838Y007171D01*
X001827Y007072D02*
X002146Y007072D01*
X002146Y006974D02*
X002184Y006974D01*
X002184Y006875D02*
X002146Y006875D01*
X001854Y006875D02*
X001827Y006875D01*
X001827Y006974D02*
X001838Y006974D01*
X002657Y005644D02*
X002984Y005218D01*
X002898Y005299D02*
X003212Y005299D01*
X003113Y005398D02*
X002939Y005398D01*
X002985Y005496D02*
X003015Y005496D01*
X003272Y004825D02*
X003577Y004825D01*
X003272Y004825D02*
X003154Y004707D01*
X003212Y003920D02*
X003299Y003920D01*
X003299Y003822D02*
X003114Y003822D01*
X003106Y003723D02*
X003334Y003723D01*
X003882Y003428D02*
X003882Y003428D01*
X003882Y003341D02*
X003882Y003341D01*
X004866Y004825D02*
X005654Y004037D01*
X005713Y004037D01*
X005850Y003900D01*
X005850Y003535D01*
X006146Y003565D02*
X006146Y003831D01*
X006156Y003840D01*
X006156Y004037D02*
X005713Y004037D01*
X006146Y003565D02*
X006256Y003455D01*
X005566Y003034D02*
X005528Y003034D01*
X005528Y002935D02*
X005566Y002935D01*
X005566Y002837D02*
X005528Y002837D01*
X004866Y004825D02*
X005654Y005612D01*
X006156Y005612D01*
X006146Y006144D02*
X006205Y006203D01*
X006205Y006545D01*
X006051Y006545D01*
X005945Y006439D01*
X005811Y006439D01*
X005654Y006281D01*
X005654Y006114D01*
X005457Y006114D02*
X005457Y006518D01*
X005555Y006616D01*
X005555Y006860D01*
X005559Y006935D01*
X005260Y006537D02*
X005102Y006695D01*
X005102Y006872D01*
X005106Y006927D01*
X005260Y006537D02*
X005260Y006114D01*
X005063Y006114D02*
X005063Y006459D01*
X004630Y006892D01*
X004630Y006970D01*
X004622Y007234D01*
X004602Y007285D01*
X004256Y007285D01*
X004138Y007364D01*
X004126Y007364D01*
X004110Y007380D01*
X004602Y007797D02*
X004898Y008073D01*
X005319Y008073D01*
X005516Y008270D01*
X005516Y008348D01*
X005402Y008463D01*
X005402Y008876D01*
X005430Y008847D02*
X005373Y008847D01*
X005373Y008568D01*
X005284Y008568D01*
X005284Y008157D01*
X005207Y008081D01*
X004824Y008081D01*
X004760Y008145D01*
X004700Y008085D01*
X004799Y008085D01*
X004837Y008075D01*
X004872Y008055D01*
X004896Y008031D01*
X004982Y008066D01*
X005105Y008066D01*
X005218Y008019D01*
X005270Y007968D01*
X005321Y008019D01*
X005435Y008066D01*
X005557Y008066D01*
X005671Y008019D01*
X005758Y007933D01*
X005804Y007819D01*
X005804Y007700D01*
X005864Y007641D01*
X005857Y007657D01*
X005857Y007780D01*
X005863Y007794D01*
X005819Y007838D01*
X005819Y008221D01*
X005883Y008285D01*
X005819Y008350D01*
X005819Y008588D01*
X005781Y008588D01*
X005705Y008665D01*
X005705Y008682D01*
X005699Y008661D01*
X005679Y008626D01*
X005651Y008598D01*
X005617Y008579D01*
X005579Y008568D01*
X005430Y008568D01*
X005430Y008847D01*
X005430Y008845D02*
X005373Y008845D01*
X005373Y008747D02*
X005430Y008747D01*
X005430Y008648D02*
X005373Y008648D01*
X005284Y008550D02*
X005819Y008550D01*
X005819Y008451D02*
X005284Y008451D01*
X005284Y008353D02*
X005819Y008353D01*
X005852Y008254D02*
X005284Y008254D01*
X005283Y008156D02*
X005819Y008156D01*
X005819Y008057D02*
X005579Y008057D01*
X005673Y008073D02*
X005811Y007935D01*
X005811Y007777D01*
X005870Y007620D01*
X005870Y007443D01*
X006051Y007262D01*
X006051Y007057D01*
X006032Y007076D02*
X006032Y007345D01*
X005866Y007345D01*
X005866Y007635D01*
X005904Y007544D01*
X005991Y007457D01*
X006104Y007410D01*
X006227Y007410D01*
X006252Y007420D01*
X006252Y007344D01*
X006248Y007345D01*
X006070Y007345D01*
X006070Y007076D01*
X006032Y007076D01*
X006032Y007171D02*
X006070Y007171D01*
X006070Y007269D02*
X006032Y007269D01*
X005981Y007466D02*
X005866Y007466D01*
X005866Y007368D02*
X006252Y007368D01*
X006165Y007718D02*
X006126Y008029D01*
X005819Y007959D02*
X005731Y007959D01*
X005787Y007860D02*
X005819Y007860D01*
X005804Y007762D02*
X005857Y007762D01*
X005857Y007663D02*
X005841Y007663D01*
X005866Y007565D02*
X005895Y007565D01*
X005559Y007447D02*
X005559Y007695D01*
X005496Y007758D01*
X005413Y008057D02*
X005126Y008057D01*
X004961Y008057D02*
X004868Y008057D01*
X005043Y007758D02*
X005106Y007695D01*
X005106Y007439D01*
X005319Y008073D02*
X005673Y008073D01*
X006126Y008541D02*
X005992Y008734D01*
X005992Y008876D01*
X005721Y008648D02*
X005692Y008648D01*
X005016Y008388D02*
X005000Y008403D01*
X005000Y008876D01*
X003737Y008845D02*
X003680Y008845D01*
X003680Y008747D02*
X003737Y008747D01*
X003737Y008648D02*
X003680Y008648D01*
X003680Y008550D02*
X003737Y008550D01*
X004079Y006203D02*
X004079Y006114D01*
D18*
X004630Y006970D03*
X005043Y007758D03*
X005496Y007758D03*
X005516Y008348D03*
X006165Y007718D03*
X006146Y006144D03*
X004079Y008466D03*
X003213Y007837D03*
X003134Y007384D03*
X002661Y006537D03*
X004039Y003073D03*
X004925Y002935D03*
X005949Y003151D03*
X006146Y003565D03*
M02*
