G75*
G70*
%OFA0B0*%
%FSLAX24Y24*%
%IPPOS*%
%LPD*%
%AMOC8*
5,1,8,0,0,1.08239X$1,22.5*
%
%ADD10C,0.1000*%
%ADD11C,0.0151*%
%ADD12R,0.0434X0.0356*%
%ADD13R,0.0356X0.0434*%
%ADD14R,0.0395X0.0789*%
%ADD15R,0.0395X0.0395*%
%ADD16R,0.0472X0.0512*%
%ADD17C,0.0020*%
%ADD18C,0.0437*%
D10*
X004616Y004825D02*
X004618Y004856D01*
X004624Y004887D01*
X004634Y004917D01*
X004647Y004945D01*
X004664Y004972D01*
X004684Y004996D01*
X004707Y005018D01*
X004732Y005036D01*
X004760Y005051D01*
X004789Y005063D01*
X004819Y005071D01*
X004850Y005075D01*
X004882Y005075D01*
X004913Y005071D01*
X004943Y005063D01*
X004972Y005051D01*
X005000Y005036D01*
X005025Y005018D01*
X005048Y004996D01*
X005068Y004972D01*
X005085Y004945D01*
X005098Y004917D01*
X005108Y004887D01*
X005114Y004856D01*
X005116Y004825D01*
X005114Y004794D01*
X005108Y004763D01*
X005098Y004733D01*
X005085Y004705D01*
X005068Y004678D01*
X005048Y004654D01*
X005025Y004632D01*
X005000Y004614D01*
X004972Y004599D01*
X004943Y004587D01*
X004913Y004579D01*
X004882Y004575D01*
X004850Y004575D01*
X004819Y004579D01*
X004789Y004587D01*
X004760Y004599D01*
X004732Y004614D01*
X004707Y004632D01*
X004684Y004654D01*
X004664Y004678D01*
X004647Y004705D01*
X004634Y004733D01*
X004624Y004763D01*
X004618Y004794D01*
X004616Y004825D01*
D11*
X003689Y004806D02*
X003465Y004806D01*
X003465Y004844D01*
X003689Y004844D01*
X003689Y004806D01*
X003689Y004609D02*
X003465Y004609D01*
X003465Y004647D01*
X003689Y004647D01*
X003689Y004609D01*
X003689Y004412D02*
X003465Y004412D01*
X003465Y004450D01*
X003689Y004450D01*
X003689Y004412D01*
X003689Y004215D02*
X003465Y004215D01*
X003465Y004253D01*
X003689Y004253D01*
X003689Y004215D01*
X003689Y004018D02*
X003465Y004018D01*
X003465Y004056D01*
X003689Y004056D01*
X003689Y004018D01*
X003689Y003821D02*
X003465Y003821D01*
X003465Y003859D01*
X003689Y003859D01*
X003689Y003821D01*
X003901Y003647D02*
X003901Y003423D01*
X003863Y003423D01*
X003863Y003647D01*
X003901Y003647D01*
X003901Y003573D02*
X003863Y003573D01*
X004098Y003647D02*
X004098Y003423D01*
X004060Y003423D01*
X004060Y003647D01*
X004098Y003647D01*
X004098Y003573D02*
X004060Y003573D01*
X004295Y003647D02*
X004295Y003423D01*
X004257Y003423D01*
X004257Y003647D01*
X004295Y003647D01*
X004295Y003573D02*
X004257Y003573D01*
X004491Y003647D02*
X004491Y003423D01*
X004453Y003423D01*
X004453Y003647D01*
X004491Y003647D01*
X004491Y003573D02*
X004453Y003573D01*
X004688Y003647D02*
X004688Y003423D01*
X004650Y003423D01*
X004650Y003647D01*
X004688Y003647D01*
X004688Y003573D02*
X004650Y003573D01*
X004885Y003647D02*
X004885Y003423D01*
X004847Y003423D01*
X004847Y003647D01*
X004885Y003647D01*
X004885Y003573D02*
X004847Y003573D01*
X005082Y003647D02*
X005082Y003423D01*
X005044Y003423D01*
X005044Y003647D01*
X005082Y003647D01*
X005082Y003573D02*
X005044Y003573D01*
X005279Y003647D02*
X005279Y003423D01*
X005241Y003423D01*
X005241Y003647D01*
X005279Y003647D01*
X005279Y003573D02*
X005241Y003573D01*
X005476Y003647D02*
X005476Y003423D01*
X005438Y003423D01*
X005438Y003647D01*
X005476Y003647D01*
X005476Y003573D02*
X005438Y003573D01*
X005673Y003647D02*
X005673Y003423D01*
X005635Y003423D01*
X005635Y003647D01*
X005673Y003647D01*
X005673Y003573D02*
X005635Y003573D01*
X005869Y003647D02*
X005869Y003423D01*
X005831Y003423D01*
X005831Y003647D01*
X005869Y003647D01*
X005869Y003573D02*
X005831Y003573D01*
X006044Y003859D02*
X006268Y003859D01*
X006268Y003821D01*
X006044Y003821D01*
X006044Y003859D01*
X006044Y004056D02*
X006268Y004056D01*
X006268Y004018D01*
X006044Y004018D01*
X006044Y004056D01*
X006044Y004253D02*
X006268Y004253D01*
X006268Y004215D01*
X006044Y004215D01*
X006044Y004253D01*
X006044Y004450D02*
X006268Y004450D01*
X006268Y004412D01*
X006044Y004412D01*
X006044Y004450D01*
X006044Y004647D02*
X006268Y004647D01*
X006268Y004609D01*
X006044Y004609D01*
X006044Y004647D01*
X006044Y004844D02*
X006268Y004844D01*
X006268Y004806D01*
X006044Y004806D01*
X006044Y004844D01*
X006044Y005041D02*
X006268Y005041D01*
X006268Y005003D01*
X006044Y005003D01*
X006044Y005041D01*
X006044Y005237D02*
X006268Y005237D01*
X006268Y005199D01*
X006044Y005199D01*
X006044Y005237D01*
X006044Y005434D02*
X006268Y005434D01*
X006268Y005396D01*
X006044Y005396D01*
X006044Y005434D01*
X006044Y005631D02*
X006268Y005631D01*
X006268Y005593D01*
X006044Y005593D01*
X006044Y005631D01*
X006044Y005828D02*
X006268Y005828D01*
X006268Y005790D01*
X006044Y005790D01*
X006044Y005828D01*
X005831Y006002D02*
X005831Y006226D01*
X005869Y006226D01*
X005869Y006002D01*
X005831Y006002D01*
X005831Y006152D02*
X005869Y006152D01*
X005635Y006226D02*
X005635Y006002D01*
X005635Y006226D02*
X005673Y006226D01*
X005673Y006002D01*
X005635Y006002D01*
X005635Y006152D02*
X005673Y006152D01*
X005438Y006226D02*
X005438Y006002D01*
X005438Y006226D02*
X005476Y006226D01*
X005476Y006002D01*
X005438Y006002D01*
X005438Y006152D02*
X005476Y006152D01*
X005241Y006226D02*
X005241Y006002D01*
X005241Y006226D02*
X005279Y006226D01*
X005279Y006002D01*
X005241Y006002D01*
X005241Y006152D02*
X005279Y006152D01*
X005044Y006226D02*
X005044Y006002D01*
X005044Y006226D02*
X005082Y006226D01*
X005082Y006002D01*
X005044Y006002D01*
X005044Y006152D02*
X005082Y006152D01*
X004847Y006226D02*
X004847Y006002D01*
X004847Y006226D02*
X004885Y006226D01*
X004885Y006002D01*
X004847Y006002D01*
X004847Y006152D02*
X004885Y006152D01*
X004650Y006226D02*
X004650Y006002D01*
X004650Y006226D02*
X004688Y006226D01*
X004688Y006002D01*
X004650Y006002D01*
X004650Y006152D02*
X004688Y006152D01*
X004453Y006226D02*
X004453Y006002D01*
X004453Y006226D02*
X004491Y006226D01*
X004491Y006002D01*
X004453Y006002D01*
X004453Y006152D02*
X004491Y006152D01*
X004257Y006226D02*
X004257Y006002D01*
X004257Y006226D02*
X004295Y006226D01*
X004295Y006002D01*
X004257Y006002D01*
X004257Y006152D02*
X004295Y006152D01*
X004060Y006226D02*
X004060Y006002D01*
X004060Y006226D02*
X004098Y006226D01*
X004098Y006002D01*
X004060Y006002D01*
X004060Y006152D02*
X004098Y006152D01*
X003863Y006226D02*
X003863Y006002D01*
X003863Y006226D02*
X003901Y006226D01*
X003901Y006002D01*
X003863Y006002D01*
X003863Y006152D02*
X003901Y006152D01*
X003689Y005790D02*
X003465Y005790D01*
X003465Y005828D01*
X003689Y005828D01*
X003689Y005790D01*
X003689Y005593D02*
X003465Y005593D01*
X003465Y005631D01*
X003689Y005631D01*
X003689Y005593D01*
X003689Y005396D02*
X003465Y005396D01*
X003465Y005434D01*
X003689Y005434D01*
X003689Y005396D01*
X003689Y005199D02*
X003465Y005199D01*
X003465Y005237D01*
X003689Y005237D01*
X003689Y005199D01*
X003689Y005003D02*
X003465Y005003D01*
X003465Y005041D01*
X003689Y005041D01*
X003689Y005003D01*
D12*
X002657Y005644D03*
X002657Y006155D03*
X003157Y006447D03*
X003157Y006959D03*
X002677Y007077D03*
X002677Y007589D03*
X002165Y007592D03*
X002165Y007081D03*
X004110Y006868D03*
X004110Y007380D03*
X004602Y007285D03*
X004602Y007797D03*
X005106Y007439D03*
X005559Y007447D03*
X005559Y006935D03*
X005106Y006927D03*
X006051Y007057D03*
X006051Y006545D03*
X006126Y008029D03*
X006126Y008541D03*
D13*
X002126Y003360D03*
X002638Y003360D03*
X002630Y005073D03*
X002118Y005073D03*
X004504Y008388D03*
X005016Y008388D03*
X005547Y002722D03*
X006059Y002722D03*
D14*
X003709Y008411D03*
X003209Y008411D03*
X002709Y008411D03*
X002209Y008411D03*
D15*
X004409Y008876D03*
X005000Y008876D03*
X005402Y008876D03*
X005992Y008876D03*
D16*
X002760Y004549D03*
X002209Y004549D03*
X002760Y003880D03*
D17*
X002435Y003886D02*
X001982Y003886D01*
X001982Y003904D02*
X002435Y003904D01*
X002435Y003923D02*
X001982Y003923D01*
X001982Y003941D02*
X002435Y003941D01*
X002435Y003960D02*
X001982Y003960D01*
X001982Y003978D02*
X002435Y003978D01*
X002435Y003997D02*
X001982Y003997D01*
X001982Y004015D02*
X002418Y004015D01*
X002435Y003998D02*
X002307Y004126D01*
X001982Y004126D01*
X001982Y003634D01*
X002435Y003634D01*
X002435Y003998D01*
X002399Y004034D02*
X001982Y004034D01*
X001982Y004052D02*
X002381Y004052D01*
X002362Y004071D02*
X001982Y004071D01*
X001982Y004089D02*
X002344Y004089D01*
X002325Y004108D02*
X001982Y004108D01*
X001982Y003867D02*
X002435Y003867D01*
X002435Y003849D02*
X001982Y003849D01*
X001982Y003830D02*
X002435Y003830D01*
X002435Y003812D02*
X001982Y003812D01*
X001982Y003793D02*
X002435Y003793D01*
X002435Y003775D02*
X001982Y003775D01*
X001982Y003756D02*
X002435Y003756D01*
X002435Y003738D02*
X001982Y003738D01*
X001982Y003719D02*
X002435Y003719D01*
X002435Y003701D02*
X001982Y003701D01*
X001982Y003682D02*
X002435Y003682D01*
X002435Y003664D02*
X001982Y003664D01*
X001982Y003645D02*
X002435Y003645D01*
D18*
X004039Y003073D03*
X004925Y002935D03*
X005949Y003151D03*
X006146Y003565D03*
X006146Y006144D03*
X006165Y007718D03*
X005496Y007758D03*
X005043Y007758D03*
X005516Y008348D03*
X004630Y006970D03*
X004079Y008466D03*
X003213Y007837D03*
X003134Y007384D03*
X002661Y006537D03*
M02*
