G75*
G70*
%OFA0B0*%
%FSLAX24Y24*%
%IPPOS*%
%LPD*%
%AMOC8*
5,1,8,0,0,1.08239X$1,22.5*
%
%ADD10C,0.0040*%
%ADD11C,0.0030*%
%ADD12R,0.0394X0.3543*%
%ADD13R,0.0394X0.3150*%
%ADD14C,0.0357*%
%ADD15C,0.0100*%
D10*
X001938Y008368D02*
X001938Y008675D01*
X002091Y008829D01*
X002244Y008675D01*
X002244Y008368D01*
X002398Y008522D02*
X002398Y008829D01*
X002244Y008599D02*
X001938Y008599D01*
X002398Y008522D02*
X002551Y008368D01*
X002705Y008522D01*
X002705Y008829D01*
X002858Y008829D02*
X003165Y008829D01*
X003165Y008368D01*
X002858Y008368D01*
X003012Y008599D02*
X003165Y008599D01*
X003319Y008599D02*
X003319Y008752D01*
X003395Y008829D01*
X003626Y008829D01*
X003626Y008368D01*
X003626Y008522D02*
X003395Y008522D01*
X003319Y008599D01*
X003472Y008522D02*
X003319Y008368D01*
D11*
X002253Y008235D02*
X002253Y008111D01*
X002253Y008173D02*
X001882Y008173D01*
X001882Y008235D02*
X001882Y008111D01*
X002006Y007989D02*
X002253Y007989D01*
X002129Y007989D02*
X002006Y007866D01*
X002006Y007804D01*
X002006Y007682D02*
X002006Y007497D01*
X002068Y007436D01*
X002253Y007436D01*
X002191Y007314D02*
X002129Y007252D01*
X002129Y007067D01*
X002068Y007067D02*
X002253Y007067D01*
X002253Y007252D01*
X002191Y007314D01*
X002006Y007252D02*
X002006Y007129D01*
X002068Y007067D01*
X002129Y006946D02*
X002006Y006822D01*
X002006Y006761D01*
X002068Y006639D02*
X002006Y006577D01*
X002006Y006392D01*
X001882Y006392D02*
X002253Y006392D01*
X002253Y006577D01*
X002191Y006639D01*
X002068Y006639D01*
X002006Y006946D02*
X002253Y006946D01*
X002191Y006271D02*
X002068Y006271D01*
X002006Y006209D01*
X002006Y006085D01*
X002068Y006024D01*
X002191Y006024D01*
X002253Y006085D01*
X002253Y006209D01*
X002191Y006271D01*
X002253Y007682D02*
X002006Y007682D01*
D12*
X002661Y004608D03*
X005417Y004608D03*
D13*
X004433Y004805D03*
X003646Y004805D03*
D14*
X004039Y003073D03*
X004925Y002935D03*
X005949Y003151D03*
X006146Y003565D03*
X006146Y006144D03*
X006165Y007718D03*
X005496Y007758D03*
X005043Y007758D03*
X005516Y008348D03*
X004630Y006970D03*
X004079Y008466D03*
X003213Y007837D03*
X003134Y007384D03*
X002661Y006537D03*
D15*
X002661Y002935D02*
X002996Y002600D01*
X006008Y002600D01*
X006264Y002856D01*
X006264Y003447D01*
X006146Y003565D01*
X006244Y003663D01*
X006244Y006045D01*
X006146Y006144D01*
X005850Y006301D02*
X006008Y006459D01*
X006008Y007561D01*
X006165Y007718D01*
X005496Y007758D02*
X005181Y008073D01*
X004886Y008073D01*
X003646Y006833D01*
X003646Y004805D01*
X004433Y004805D02*
X004433Y006380D01*
X004335Y006478D01*
X004039Y006478D01*
X003941Y006577D01*
X003941Y006774D01*
X004925Y007758D01*
X005043Y007758D01*
X005516Y008348D02*
X005516Y008431D01*
X005402Y008545D01*
X004157Y008545D01*
X004079Y008466D01*
X003213Y007837D02*
X003449Y007561D01*
X003449Y006596D01*
X003311Y006459D01*
X003311Y003171D01*
X003409Y003073D01*
X004039Y003073D01*
X003764Y002777D02*
X004315Y002777D01*
X004354Y002817D01*
X004807Y002817D01*
X004925Y002935D01*
X005791Y003309D02*
X005949Y003151D01*
X005791Y003309D02*
X005791Y003703D01*
X006008Y003919D01*
X006008Y005829D01*
X005850Y005986D01*
X005850Y006301D01*
X005417Y006380D02*
X005417Y004608D01*
X005417Y006380D02*
X004866Y006931D01*
X004630Y006970D01*
X003134Y007384D02*
X003055Y007305D01*
X003055Y003092D01*
X003331Y002817D01*
X003724Y002817D01*
X003764Y002777D01*
X002661Y002935D02*
X002661Y004608D01*
X002661Y006537D01*
X002661Y006577D01*
M02*
